<svg xmlns="http://www.w3.org/2000/svg" xmlns:xlink="http://www.w3.org/1999/xlink" version="1.1" x="0px" y="0px" viewBox="0 0 100 125" enable-background="new 0 0 100 100" xml:space="preserve"><path d="M87.242,74.559l7.476-5.967l-2.136-4.758l-5.457,0.258l-4.481-14.769l-19.06-7.42l-22.833,6.66l-6.368-8.578l23.787-9.422  l4.171-19.936L37.334,27.729l-4.425,3.556l3.904-4.138l2.727-5.5l-6.967-4.86l-11.418,8.155l8.699-0.726l-6.879,13.1L10.767,42.81  l-2.67,1.566l-2.815,3.436l2.771,6.997l9.226,4.829l6.3,0.186l5.031,3.096l9.968,12.507l-1.3,6.811l-6.391,3.634l-1.534,3.502  h11.426l3.739-5.195l6.815-11.383l10.959-5.541l-7.982,6.63l-0.283,4.112l4.427,4.86l-8.606,1.114l-3.157,5.402l40.12-0.013  l-2.101-4.534l-2.726-1.471l3.12-3.39L87.242,74.559z M22.557,45.657l-2.589,0.986l-2.147-1.749l0.44-2.735l2.589-0.985l2.147,1.749  L22.557,45.657z"/><text x="0" y="115" fill="#000000" font-size="5px" font-weight="bold" font-family="'Helvetica Neue', Helvetica, Arial-Unicode, Arial, Sans-serif">Created by m. turan ercan</text><text x="0" y="120" fill="#000000" font-size="5px" font-weight="bold" font-family="'Helvetica Neue', Helvetica, Arial-Unicode, Arial, Sans-serif">from the Noun Project</text></svg>